<svg width="15" height="13" viewBox="0 0 15 13" fill="none" xmlns="http://www.w3.org/2000/svg">
<path d="M7.32875 6.5C6.4668 6.5 5.64015 6.15759 5.03065 5.5481C4.42116 4.9386 4.07875 4.11195 4.07875 3.25C4.07875 2.38805 4.42116 1.5614 5.03065 0.951903C5.64015 0.34241 6.4668 0 7.32875 0C8.1907 0 9.01735 0.34241 9.62685 0.951903C10.2363 1.5614 10.5787 2.38805 10.5787 3.25C10.5787 4.11195 10.2363 4.9386 9.62685 5.5481C9.01735 6.15759 8.1907 6.5 7.32875 6.5ZM11.2287 9.75V13H9.92875V9.75C9.92875 6.85685 11.6473 4.36475 14.1193 3.2396L14.6575 4.4226C13.6349 4.88773 12.7678 5.63741 12.1597 6.58211C11.5517 7.5268 11.2285 8.62656 11.2287 9.75ZM4.72875 9.75V13H3.42875V9.75C3.42885 8.62667 3.10559 7.52705 2.49758 6.58249C1.88958 5.63792 1.02253 4.88833 0 4.42325L0.5382 3.2396C1.78795 3.80802 2.84765 4.72417 3.59074 5.87863C4.33384 7.03309 4.7289 8.37706 4.72875 9.75Z" fill="#888888"/>
</svg>
