<svg width="13" height="13" viewBox="0 0 13 13" fill="none" xmlns="http://www.w3.org/2000/svg">
<path fill-rule="evenodd" clip-rule="evenodd" d="M0 6.49999C0 2.91265 2.912 0 6.5 0C10.0945 0 13 2.91265 13 6.49999C13 10.0886 10.0945 13 6.5 13C2.912 13 0 10.0886 0 6.49999ZM5.928 4.03651C5.928 3.72516 6.188 3.46451 6.5 3.46451C6.812 3.46451 7.0655 3.72516 7.0655 4.03651V6.90949C7.0655 7.22214 6.812 7.47499 6.5 7.47499C6.188 7.47499 5.928 7.22214 5.928 6.90949V4.03651ZM6.5065 9.54264C6.188 9.54264 5.9345 9.28264 5.9345 8.97064C5.9345 8.65864 6.188 8.40514 6.5 8.40514C6.8185 8.40514 7.072 8.65864 7.072 8.97064C7.072 9.28264 6.8185 9.54264 6.5065 9.54264Z" fill="#888888"/>
</svg>
