<svg width="10" height="11" viewBox="0 0 10 11" fill="none" xmlns="http://www.w3.org/2000/svg">
<path fill-rule="evenodd" clip-rule="evenodd" d="M2.93894 7.79458H5.85645C6.07631 7.79458 6.25869 7.61042 6.25869 7.38833C6.25869 7.16625 6.07631 6.9875 5.85645 6.9875H2.93894C2.71906 6.9875 2.53672 7.16625 2.53672 7.38833C2.53672 7.61042 2.71906 7.79458 2.93894 7.79458ZM4.75166 4.27917H2.93894C2.71906 4.27917 2.53672 4.46333 2.53672 4.68542C2.53672 4.9075 2.71906 5.08625 2.93894 5.08625H4.75166C4.97153 5.08625 5.1539 4.9075 5.1539 4.68542C5.1539 4.46333 4.97153 4.27917 4.75166 4.27917ZM8.57897 3.80554C8.70502 3.80408 8.84228 3.8025 8.96702 3.8025C9.10108 3.8025 9.20833 3.91083 9.20833 4.04625V8.40125C9.20833 9.74458 8.13036 10.8333 6.80035 10.8333H2.53135C1.13696 10.8333 0 9.69042 0 8.28208V2.44292C0 1.09958 1.08333 0 2.41873 0H5.2826C5.42203 0 5.52928 0.11375 5.52928 0.249167V1.99333C5.52928 2.98458 6.33913 3.79708 7.32057 3.8025C7.5498 3.8025 7.7519 3.80421 7.92875 3.80571C8.06634 3.80688 8.18865 3.80792 8.2966 3.80792C8.37297 3.80792 8.47194 3.80677 8.57897 3.80554ZM8.72685 3.01492C8.28598 3.01654 7.76631 3.01492 7.3925 3.01113C6.79938 3.01113 6.3108 2.51767 6.3108 1.91858V0.49075C6.3108 0.257292 6.59127 0.141375 6.75166 0.309833C7.04188 0.614662 7.44077 1.03368 7.83786 1.45078C8.23382 1.86676 8.62799 2.28082 8.9108 2.57779C9.06739 2.74192 8.95261 3.01438 8.72685 3.01492Z" fill="#888888"/>
</svg>
