<svg width="13" height="13" viewBox="0 0 13 13" fill="none" xmlns="http://www.w3.org/2000/svg">
<path d="M4.31842 12.2083V10.2149C4.31841 9.70975 4.72918 9.29934 5.23795 9.29616H7.10618C7.61727 9.29616 8.03158 9.70748 8.03158 10.2149V12.2026C8.03152 12.6407 8.38759 12.9968 8.82887 13H10.1035C10.6987 13.0015 11.2702 12.7678 11.6917 12.3504C12.1131 11.9331 12.35 11.3664 12.35 10.7754V5.1128C12.35 4.6354 12.1368 4.18256 11.768 3.87627L7.43794 0.438275C6.68102 -0.163071 5.6 -0.143643 4.8655 0.484497L0.628556 3.87627C0.242281 4.17353 0.0114075 4.62771 0 5.1128V10.7696C0 12.0014 1.0058 13 2.24651 13H3.49198C3.70446 13.0015 3.90876 12.9188 4.05955 12.7701C4.21034 12.6216 4.29515 12.4193 4.29514 12.2083H4.31842Z" fill="white"/>
</svg>
