<svg width="13" height="13" viewBox="0 0 13 13" fill="none" xmlns="http://www.w3.org/2000/svg">
<path fill-rule="evenodd" clip-rule="evenodd" d="M1.65102 0H3.84806C4.76457 0 5.49908 0.747511 5.49908 1.66467V3.88056C5.49908 4.80357 4.76457 5.54458 3.84806 5.54458H1.65102C0.741011 5.54458 0 4.80357 0 3.88056V1.66467C0 0.747511 0.741011 0 1.65102 0ZM1.65102 7.45542H3.84806C4.76457 7.45542 5.49908 8.19708 5.49908 9.12009V11.336C5.49908 12.2525 4.76457 13 3.84806 13H1.65102C0.741011 13 0 12.2525 0 11.336V9.12009C0 8.19708 0.741011 7.45542 1.65102 7.45542ZM11.3492 0H9.1522C8.23569 0 7.50118 0.747511 7.50118 1.66467V3.88056C7.50118 4.80357 8.23569 5.54458 9.1522 5.54458H11.3492C12.2592 5.54458 13.0003 4.80357 13.0003 3.88056V1.66467C13.0003 0.747511 12.2592 0 11.3492 0ZM9.1522 7.45542H11.3492C12.2592 7.45542 13.0003 8.19708 13.0003 9.12009V11.336C13.0003 12.2525 12.2592 13 11.3492 13H9.1522C8.23569 13 7.50118 12.2525 7.50118 11.336V9.12009C7.50118 8.19708 8.23569 7.45542 9.1522 7.45542Z" fill="#888888"/>
</svg>
