<svg width="14" height="14" viewBox="0 0 14 14" fill="none" xmlns="http://www.w3.org/2000/svg">
<path d="M11.5759 12.2969C10.3057 13.3975 8.68071 14.0023 7 14C3.1339 14 0 10.8661 0 7C0 3.1339 3.1339 0 7 0C10.8661 0 14 3.1339 14 7C14 8.4952 13.531 9.8812 12.733 11.018L10.5 7H12.6C12.5999 5.70934 12.154 4.45834 11.3377 3.45862C10.5214 2.4589 9.3848 1.77183 8.12023 1.51365C6.85566 1.25547 5.54073 1.44201 4.39787 2.04174C3.25502 2.64146 2.35439 3.61754 1.84837 4.80485C1.34234 5.99217 1.26196 7.31784 1.62084 8.55759C1.97972 9.79735 2.75582 10.8751 3.81786 11.6085C4.87989 12.3419 6.16265 12.6859 7.44915 12.5824C8.73564 12.4789 9.94689 11.9342 10.878 11.0404L11.5759 12.2969Z" fill="white"/>
</svg>
