<svg width="10" height="16" viewBox="0 0 10 16" fill="none" xmlns="http://www.w3.org/2000/svg">
<path d="M4.8 13.6C5.4624 13.6 6 14.1376 6 14.8C6 15.4624 5.4624 16 4.8 16C4.1376 16 3.6 15.4624 3.6 14.8C3.6 14.1376 4.1376 13.6 4.8 13.6ZM4.8 0C7.4512 0 9.6 2.1488 9.6 4.8C9.6 6.532 8.9976 7.432 7.4608 8.7384C5.9192 10.048 5.6 10.6376 5.6 12H4C4 10.0208 4.6296 9.044 6.4248 7.5192C7.6384 6.488 8 5.9472 8 4.8C8 3.032 6.568 1.6 4.8 1.6C3.032 1.6 1.6 3.032 1.6 4.8V5.6H0V4.8C0 2.1488 2.1488 0 4.8 0Z" fill="white"/>
</svg>
