<svg width="259" height="259" viewBox="0 0 259 259" fill="none" xmlns="http://www.w3.org/2000/svg">
<path d="M257.521 163.78L163.628 1.1521L0.999966 95.0453L94.8933 257.673L257.521 163.78Z" stroke="black" stroke-opacity="0.1" stroke-miterlimit="10"/>
<path d="M179.555 28.1301L28.3055 79.4711L79.646 230.72L230.895 179.379L179.555 28.1301Z" stroke="black" stroke-opacity="0.1" stroke-miterlimit="10"/>
<path d="M187.925 53.4816L53.2514 71.2106L70.9803 205.885L205.654 188.155L187.925 53.4816Z" stroke="black" stroke-opacity="0.1" stroke-miterlimit="10"/>
<path d="M190.627 76.0177L75.3802 68.4633L67.8256 183.71L183.072 191.264L190.627 76.0177Z" stroke="black" stroke-opacity="0.1" stroke-miterlimit="10"/>
<path d="M189.487 94.5804L94.5614 69.1451L69.1261 164.071L164.052 189.506L189.487 94.5804Z" stroke="black" stroke-opacity="0.1" stroke-miterlimit="10"/>
<path d="M185.456 110.929L110.505 73.9676L73.5445 148.918L148.496 185.878L185.456 110.929Z" stroke="black" stroke-opacity="0.1" stroke-miterlimit="10"/>
<path d="M178.739 122.524L122.379 79.2696L79.1247 135.629L135.485 178.884L178.739 122.524Z" stroke="black" stroke-opacity="0.1" stroke-miterlimit="10"/>
<path d="M171.535 131.852L131.712 86.4344L86.2933 126.258L126.116 171.676L171.535 131.852Z" stroke="black" stroke-opacity="0.1" stroke-miterlimit="10"/>
<path d="M164.408 138.756L138.744 94.3035L94.2932 119.967L119.958 164.419L164.408 138.756Z" stroke="black" stroke-opacity="0.1" stroke-miterlimit="10"/>
</svg>
