<svg width="12" height="13" viewBox="0 0 12 13" fill="none" xmlns="http://www.w3.org/2000/svg">
<path d="M2.6 2.6V0.649999C2.6 0.477609 2.66848 0.312279 2.79038 0.19038C2.91228 0.0684819 3.07761 0 3.25 0H11.05C11.2224 0 11.3877 0.0684819 11.5096 0.19038C11.6315 0.312279 11.7 0.477609 11.7 0.649999V9.74999C11.7 9.92238 11.6315 10.0877 11.5096 10.2096C11.3877 10.3315 11.2224 10.4 11.05 10.4H9.09999V12.35C9.09999 12.7088 8.80749 13 8.44544 13H0.654549C0.568832 13.0005 0.483858 12.9841 0.404509 12.9516C0.32516 12.9192 0.253001 12.8714 0.192178 12.811C0.131354 12.7506 0.0830653 12.6788 0.0500852 12.5997C0.0171051 12.5206 8.40932e-05 12.4357 0 12.35L0.00195001 3.25C0.00195001 2.8912 0.29445 2.6 0.6565 2.6H2.6ZM1.30195 3.9L1.3 11.7H7.79999V3.9H1.30195ZM3.9 2.6H9.09999V9.09999H10.4V1.3H3.9V2.6Z" fill="black"/>
</svg>
