<svg width="14" height="11" viewBox="0 0 14 11" fill="none" xmlns="http://www.w3.org/2000/svg">
<path d="M13.5284 1.30582C13.0217 1.52995 12.4844 1.67715 11.9342 1.74254C12.5141 1.39571 12.9482 0.849859 13.1554 0.206713C12.6112 0.530605 12.0145 0.757594 11.3926 0.880381C10.9749 0.433423 10.4212 0.136999 9.8176 0.037191C9.21402 -0.062617 8.59437 0.0397836 8.05499 0.328473C7.5156 0.617163 7.08671 1.07597 6.83498 1.63356C6.58325 2.19115 6.5228 2.81628 6.663 3.41178C5.55932 3.35646 4.47961 3.06965 3.49397 2.56997C2.50833 2.07029 1.63879 1.3689 0.941807 0.511357C0.695099 0.935104 0.565453 1.41681 0.566146 1.90714C0.566146 2.86953 1.05597 3.71974 1.80065 4.21752C1.35995 4.20365 0.928953 4.08464 0.54358 3.8704V3.90492C0.543713 4.54586 0.765505 5.16704 1.17135 5.66313C1.5772 6.15922 2.14212 6.49968 2.77033 6.6268C2.36123 6.73766 1.93227 6.754 1.51592 6.67459C1.69304 7.22629 2.03826 7.70878 2.50325 8.05452C2.96824 8.40025 3.52971 8.59191 4.10904 8.60267C3.53326 9.05487 2.87399 9.38916 2.16893 9.5864C1.46387 9.78365 0.726849 9.84 0 9.75222C1.26882 10.5682 2.74584 11.0014 4.25439 11C9.36033 11 12.1526 6.77016 12.1526 3.10182C12.1526 2.98236 12.1492 2.86156 12.1439 2.74342C12.6874 2.35061 13.1565 1.86401 13.5291 1.30648L13.5284 1.30582Z" fill="#fff"/>
</svg>
