<svg width="12" height="10" viewBox="0 0 12 10" fill="none" xmlns="http://www.w3.org/2000/svg">
<path d="M1.16488 3.29067L1.83192 8.96261H9.32396L9.991 3.29067L7.91104 4.67715L5.57794 1.41092L3.24485 4.67715L1.16488 3.29067ZM0.806463 1.80461L2.98447 3.25696L5.15573 0.217404C5.20371 0.150165 5.26705 0.0953572 5.34049 0.0575427C5.41393 0.0197282 5.49534 0 5.57794 0C5.66055 0 5.74196 0.0197282 5.81539 0.0575427C5.88883 0.0953572 5.95218 0.150165 6.00016 0.217404L8.17142 3.25696L10.3499 1.80461C10.4324 1.74976 10.5288 1.71965 10.6278 1.71785C10.7268 1.71605 10.8243 1.74263 10.9087 1.79446C10.9931 1.84628 11.0609 1.92117 11.104 2.01029C11.1472 2.09941 11.164 2.19903 11.1524 2.29737L10.3001 9.54199C10.2853 9.66817 10.2246 9.78449 10.1297 9.86892C10.0347 9.95334 9.91213 9.99998 9.78508 10H1.3708C1.24376 9.99998 1.12114 9.95334 1.0262 9.86892C0.931258 9.78449 0.870604 9.66817 0.855739 9.54199L0.00352281 2.29685C-0.00799225 2.19855 0.00885767 2.09901 0.0520834 2.00997C0.0953092 1.92094 0.163106 1.84613 0.247471 1.79437C0.331836 1.74262 0.429246 1.71608 0.528204 1.7179C0.627161 1.71971 0.723534 1.7498 0.805945 1.80461H0.806463ZM5.57794 6.88783C5.30281 6.88783 5.03895 6.77853 4.8444 6.58398C4.64985 6.38943 4.54055 6.12557 4.54055 5.85044C4.54055 5.5753 4.64985 5.31144 4.8444 5.11689C5.03895 4.92234 5.30281 4.81305 5.57794 4.81305C5.85308 4.81305 6.11694 4.92234 6.31149 5.11689C6.50604 5.31144 6.61533 5.5753 6.61533 5.85044C6.61533 6.12557 6.50604 6.38943 6.31149 6.58398C6.11694 6.77853 5.85308 6.88783 5.57794 6.88783Z" fill="white"/>
</svg>
