<svg width="13" height="10" viewBox="0 0 13 10" fill="none" xmlns="http://www.w3.org/2000/svg">
<path d="M6.66667 7.74333V8.88889H9.44444V10H2.77778V8.88889H5.55556V7.74333C4.4815 7.60789 3.49379 7.08515 2.77778 6.27319C2.06177 5.46124 1.66669 4.41589 1.66667 3.33333V0H10.5556V3.33333C10.5555 4.41589 10.1605 5.46124 9.44444 6.27319C8.72843 7.08515 7.74072 7.60789 6.66667 7.74333ZM2.77778 1.11111V3.33333C2.77778 4.21739 3.12897 5.06523 3.75409 5.69036C4.37921 6.31548 5.22706 6.66667 6.11111 6.66667C6.99517 6.66667 7.84301 6.31548 8.46813 5.69036C9.09326 5.06523 9.44444 4.21739 9.44444 3.33333V1.11111H2.77778ZM0 1.11111H1.11111V3.33333H0V1.11111ZM11.1111 1.11111H12.2222V3.33333H11.1111V1.11111Z" fill="white"/>
</svg>
