<svg width="13" height="10" viewBox="0 0 13 10" fill="none" xmlns="http://www.w3.org/2000/svg">
<path d="M2.51967 5.15467e-09H10.1168C10.2009 -1.169e-05 10.2838 0.0198777 10.3587 0.0580424C10.4337 0.0962071 10.4985 0.151564 10.5479 0.219587L12.5855 3.02093C12.6217 3.07077 12.6396 3.13163 12.636 3.19314C12.6324 3.25465 12.6076 3.31302 12.5658 3.3583L6.51382 9.91448C6.46587 9.96631 6.39932 9.99699 6.32877 9.99979C6.25822 10.0026 6.18944 9.97727 6.13754 9.92941C6.13381 9.92621 4.11222 7.7362 0.0706335 3.3583C0.0288498 3.31302 0.00404978 3.25465 0.000454309 3.19314C-0.00314117 3.13163 0.0146901 3.07077 0.0509132 3.02093L2.08849 0.219587C2.13794 0.151564 2.20279 0.0962071 2.27773 0.0580424C2.35267 0.0198777 2.43558 -1.169e-05 2.51967 5.15467e-09ZM2.79149 1.06596L1.29915 3.11793L6.31822 8.55432L11.3373 3.11793L9.84494 1.06596H2.79149Z" fill="white"/>
</svg>
