<svg width="7" height="10" viewBox="0 0 7 10" fill="none" xmlns="http://www.w3.org/2000/svg">
<path d="M3.48808 10C4.41325 10 5.30053 9.63248 5.95473 8.97828C6.60892 8.32408 6.97645 7.4368 6.97645 6.51163C6.97645 6.10884 6.86947 5.72233 6.74389 5.36279C5.96854 6.12884 5.3797 6.51163 4.97645 6.51163C6.83459 3.25581 5.81366 1.86047 3.02296 0C3.25552 2.32558 1.72249 3.38326 1.09831 3.9707C0.589157 4.44962 0.235627 5.07045 0.0835555 5.75271C-0.0685162 6.43497 -0.0121152 7.14717 0.245445 7.79699C0.503006 8.44681 0.949847 9.00426 1.52803 9.39707C2.10622 9.78989 2.78908 9.99994 3.48808 10ZM3.81831 1.73721C5.32575 3.01628 5.33319 4.01023 4.16854 6.0507C3.81459 6.6707 4.26249 7.44186 4.97645 7.44186C5.29645 7.44186 5.62017 7.34884 5.96203 7.16512C5.8607 7.5479 5.67189 7.90193 5.41047 8.19934C5.14906 8.49675 4.82217 8.72941 4.45555 8.87901C4.08893 9.02861 3.69259 9.09105 3.29773 9.06144C2.90287 9.03182 2.52028 8.91094 2.18008 8.70833C1.83988 8.50571 1.55135 8.22689 1.33723 7.89381C1.12311 7.56073 0.989225 7.1825 0.94613 6.78888C0.903034 6.39527 0.951901 5.99702 1.08888 5.6255C1.22586 5.25398 1.44722 4.91933 1.73552 4.64791C1.79412 4.59302 2.09133 4.3293 2.10435 4.31767C2.30156 4.14093 2.46389 3.98419 2.62435 3.81256C3.19645 3.19953 3.60761 2.51954 3.81784 1.73721H3.81831Z" fill="white"/>
</svg>
