<svg width="13" height="13" viewBox="0 0 13 13" fill="none" xmlns="http://www.w3.org/2000/svg">
<path d="M8.211 2.05258H9.57939C9.94231 2.05258 10.2904 2.19675 10.547 2.45337C10.8036 2.70999 10.9478 3.05805 10.9478 3.42096V9.01082C11.4045 9.17223 11.7894 9.48989 12.0345 9.90767C12.2796 10.3254 12.3692 10.8164 12.2873 11.2938C12.2054 11.7712 11.9574 12.2043 11.5871 12.5165C11.2167 12.8288 10.748 13 10.2636 13C9.77921 13 9.31042 12.8288 8.9401 12.5165C8.56977 12.2043 8.32175 11.7712 8.23987 11.2938C8.15799 10.8164 8.24752 10.3254 8.49265 9.90767C8.73777 9.48989 9.1227 9.17223 9.57939 9.01082V3.42096H8.211V5.47354L5.13214 2.73677L8.211 0V2.05258ZM1.36907 4.67304C0.912381 4.51163 0.527453 4.19397 0.28233 3.77619C0.0372067 3.35842 -0.0523272 2.86744 0.0295537 2.39003C0.111435 1.91262 0.359458 1.47954 0.729784 1.16732C1.10011 0.855102 1.56889 0.683859 2.05327 0.683859C2.53764 0.683859 3.00643 0.855102 3.37675 1.16732C3.74708 1.47954 3.9951 1.91262 4.07698 2.39003C4.15886 2.86744 4.06933 3.35842 3.8242 3.77619C3.57908 4.19397 3.19415 4.51163 2.73746 4.67304V9.01082C3.19415 9.17223 3.57908 9.48989 3.8242 9.90767C4.06933 10.3254 4.15886 10.8164 4.07698 11.2938C3.9951 11.7712 3.74708 12.2043 3.37675 12.5165C3.00643 12.8288 2.53764 13 2.05327 13C1.56889 13 1.10011 12.8288 0.729784 12.5165C0.359458 12.2043 0.111435 11.7712 0.0295537 11.2938C-0.0523272 10.8164 0.0372067 10.3254 0.28233 9.90767C0.527453 9.48989 0.912381 9.17223 1.36907 9.01082V4.67304ZM2.05327 3.42096C2.23473 3.42096 2.40875 3.34888 2.53706 3.22057C2.66538 3.09226 2.73746 2.91823 2.73746 2.73677C2.73746 2.55531 2.66538 2.38129 2.53706 2.25297C2.40875 2.12466 2.23473 2.05258 2.05327 2.05258C1.87181 2.05258 1.69778 2.12466 1.56947 2.25297C1.44116 2.38129 1.36907 2.55531 1.36907 2.73677C1.36907 2.91823 1.44116 3.09226 1.56947 3.22057C1.69778 3.34888 1.87181 3.42096 2.05327 3.42096ZM2.05327 11.6313C2.23473 11.6313 2.40875 11.5592 2.53706 11.4309C2.66538 11.3026 2.73746 11.1285 2.73746 10.9471C2.73746 10.7656 2.66538 10.5916 2.53706 10.4633C2.40875 10.335 2.23473 10.2629 2.05327 10.2629C1.87181 10.2629 1.69778 10.335 1.56947 10.4633C1.44116 10.5916 1.36907 10.7656 1.36907 10.9471C1.36907 11.1285 1.44116 11.3026 1.56947 11.4309C1.69778 11.5592 1.87181 11.6313 2.05327 11.6313ZM10.2636 11.6313C10.445 11.6313 10.6191 11.5592 10.7474 11.4309C10.8757 11.3026 10.9478 11.1285 10.9478 10.9471C10.9478 10.7656 10.8757 10.5916 10.7474 10.4633C10.6191 10.335 10.445 10.2629 10.2636 10.2629C10.0821 10.2629 9.9081 10.335 9.77979 10.4633C9.65147 10.5916 9.57939 10.7656 9.57939 10.9471C9.57939 11.1285 9.65147 11.3026 9.77979 11.4309C9.9081 11.5592 10.0821 11.6313 10.2636 11.6313Z" fill="#666666"/>
</svg>
