<svg width="12" height="13" viewBox="0 0 12 13" fill="none" xmlns="http://www.w3.org/2000/svg">
<path d="M9.1 9.1C10.1771 9.1 11.05 9.97295 11.05 11.05C11.05 12.127 10.1771 13 9.1 13C8.02295 13 7.15 12.127 7.15 11.05C7.15 9.97295 8.02295 9.1 9.1 9.1ZM2.6 6.5C4.0365 6.5 5.2 7.6635 5.2 9.1C5.2 10.5365 4.0365 11.7 2.6 11.7C1.1635 11.7 0 10.5365 0 9.1C0 7.6635 1.1635 6.5 2.6 6.5ZM9.1 10.4C8.7412 10.4 8.45 10.6912 8.45 11.05C8.45 11.4088 8.7412 11.7 9.1 11.7C9.4588 11.7 9.75 11.4088 9.75 11.05C9.75 10.6912 9.4588 10.4 9.1 10.4ZM2.6 7.8C1.88175 7.8 1.3 8.38175 1.3 9.1C1.3 9.81825 1.88175 10.4 2.6 10.4C3.31825 10.4 3.9 9.81825 3.9 9.1C3.9 8.38175 3.31825 7.8 2.6 7.8ZM8.125 0C10.0997 0 11.7 1.6003 11.7 3.575C11.7 5.5497 10.0997 7.15 8.125 7.15C6.1503 7.15 4.55 5.5497 4.55 3.575C4.55 1.6003 6.1503 0 8.125 0ZM8.125 1.3C6.86855 1.3 5.85 2.31855 5.85 3.575C5.85 4.83145 6.86855 5.85 8.125 5.85C9.38145 5.85 10.4 4.83145 10.4 3.575C10.4 2.31855 9.38145 1.3 8.125 1.3Z" fill="white"/>
</svg>
