<svg width="13" height="12" viewBox="0 0 13 12" fill="none" xmlns="http://www.w3.org/2000/svg">
<path d="M2.66652 1.33393C2.66634 1.68753 2.5257 2.02658 2.27554 2.27649C2.02539 2.5264 1.6862 2.6667 1.33259 2.66652C0.97899 2.66634 0.639941 2.5257 0.390031 2.27554C0.140122 2.02539 -0.000176634 1.6862 1.66898e-07 1.33259C0.000176968 0.978991 0.140814 0.639941 0.390974 0.390031C0.641134 0.140122 0.980324 -0.000176634 1.33393 1.66898e-07C1.68753 0.000176968 2.02658 0.140814 2.27649 0.390974C2.5264 0.641134 2.6667 0.980324 2.66652 1.33393ZM2.70652 3.6538H0.0399979V12H2.70652V3.6538ZM6.91962 3.6538H4.26643V12H6.89295V7.62024C6.89295 5.18038 10.0728 4.95373 10.0728 7.62024V12H12.706V6.71363C12.706 2.60052 7.99956 2.75385 6.89295 4.77374L6.91962 3.6538Z" fill="#fff"/>
</svg>
