<svg width="12" height="12" viewBox="0 0 12 12" fill="none" xmlns="http://www.w3.org/2000/svg">
<path d="M6 4.2C5.52261 4.2 5.06477 4.38964 4.72721 4.72721C4.38964 5.06477 4.2 5.52261 4.2 6C4.2 6.47739 4.38964 6.93523 4.72721 7.27279C5.06477 7.61036 5.52261 7.8 6 7.8C6.47739 7.8 6.93523 7.61036 7.27279 7.27279C7.61036 6.93523 7.8 6.47739 7.8 6C7.8 5.52261 7.61036 5.06477 7.27279 4.72721C6.93523 4.38964 6.47739 4.2 6 4.2ZM6 3C6.79565 3 7.55871 3.31607 8.12132 3.87868C8.68393 4.44129 9 5.20435 9 6C9 6.79565 8.68393 7.55871 8.12132 8.12132C7.55871 8.68393 6.79565 9 6 9C5.20435 9 4.44129 8.68393 3.87868 8.12132C3.31607 7.55871 3 6.79565 3 6C3 5.20435 3.31607 4.44129 3.87868 3.87868C4.44129 3.31607 5.20435 3 6 3ZM9.9 2.85C9.9 3.04891 9.82098 3.23968 9.68033 3.38033C9.53968 3.52098 9.34891 3.6 9.15 3.6C8.95109 3.6 8.76032 3.52098 8.61967 3.38033C8.47902 3.23968 8.4 3.04891 8.4 2.85C8.4 2.65109 8.47902 2.46032 8.61967 2.31967C8.76032 2.17902 8.95109 2.1 9.15 2.1C9.34891 2.1 9.53968 2.17902 9.68033 2.31967C9.82098 2.46032 9.9 2.65109 9.9 2.85ZM6 1.2C4.5156 1.2 4.2732 1.2042 3.5826 1.2348C3.1122 1.257 2.7966 1.32 2.5038 1.434C2.2434 1.5348 2.0556 1.6554 1.8558 1.8558C1.668 2.03724 1.52361 2.25875 1.4334 2.5038C1.3194 2.7978 1.2564 3.1128 1.2348 3.5826C1.2036 4.245 1.2 4.4766 1.2 6C1.2 7.4844 1.2042 7.7268 1.2348 8.4174C1.257 8.8872 1.32 9.2034 1.4334 9.4956C1.5354 9.7566 1.6554 9.9444 1.8546 10.1436C2.0568 10.3452 2.2446 10.4658 2.5026 10.5654C2.799 10.68 3.1146 10.7436 3.5826 10.7652C4.245 10.7964 4.4766 10.8 6 10.8C7.4844 10.8 7.7268 10.7958 8.4174 10.7652C8.8866 10.743 9.2028 10.68 9.4956 10.5666C9.7554 10.4652 9.9444 10.3446 10.1436 10.1454C10.3458 9.9432 10.4664 9.7554 10.566 9.4974C10.68 9.2016 10.7436 8.8854 10.7652 8.4174C10.7964 7.755 10.8 7.5234 10.8 6C10.8 4.5156 10.7958 4.2732 10.7652 3.5826C10.743 3.1134 10.68 2.7966 10.566 2.5038C10.4756 2.259 10.3314 2.03758 10.1442 1.8558C9.96284 1.66791 9.74131 1.5235 9.4962 1.4334C9.2022 1.3194 8.8866 1.2564 8.4174 1.2348C7.755 1.2036 7.5234 1.2 6 1.2ZM6 0C7.6302 0 7.8336 0.00599997 8.4732 0.036C9.1122 0.066 9.5472 0.1662 9.93 0.315C10.326 0.4674 10.6596 0.6738 10.9932 1.0068C11.2983 1.30674 11.5344 1.66955 11.685 2.07C11.8332 2.4522 11.934 2.8878 11.964 3.5268C11.9922 4.1664 12 4.3698 12 6C12 7.6302 11.994 7.8336 11.964 8.4732C11.934 9.1122 11.8332 9.5472 11.685 9.93C11.5348 10.3307 11.2987 10.6936 10.9932 10.9932C10.6932 11.2982 10.3304 11.5343 9.93 11.685C9.5478 11.8332 9.1122 11.934 8.4732 11.964C7.8336 11.9922 7.6302 12 6 12C4.3698 12 4.1664 11.994 3.5268 11.964C2.8878 11.934 2.4528 11.8332 2.07 11.685C1.6694 11.5347 1.30652 11.2986 1.0068 10.9932C0.701644 10.6933 0.465559 10.3305 0.315 9.93C0.1662 9.5478 0.066 9.1122 0.036 8.4732C0.00779997 7.8336 0 7.6302 0 6C0 4.3698 0.00599997 4.1664 0.036 3.5268C0.066 2.8872 0.1662 2.4528 0.315 2.07C0.465142 1.66931 0.701282 1.30639 1.0068 1.0068C1.3066 0.701539 1.66946 0.465438 2.07 0.315C2.4528 0.1662 2.8872 0.066 3.5268 0.036C4.1664 0.00779997 4.3698 0 6 0Z" fill="#fff"/>
</svg>
