<svg width="13" height="10" viewBox="0 0 13 10" fill="none" xmlns="http://www.w3.org/2000/svg">
<path d="M8.35293 1.2022C7.89636 1.20212 7.45802 1.38129 7.13222 1.70113C6.80642 2.02098 6.6192 2.45595 6.61085 2.91243L6.59403 3.85856C6.59305 3.90936 6.58134 3.95937 6.55966 4.00532C6.53799 4.05128 6.50684 4.09213 6.46827 4.1252C6.4297 4.15827 6.38457 4.18281 6.33584 4.19722C6.28712 4.21162 6.2359 4.21556 6.18555 4.20877L5.24784 4.08142C4.01397 3.91322 2.83176 3.34495 1.69762 2.40002C1.33839 4.38839 2.04002 5.76582 3.72983 6.82849L4.77928 7.48807C4.82914 7.5194 4.87057 7.56248 4.89993 7.61353C4.92929 7.66458 4.9457 7.72205 4.94772 7.78091C4.94973 7.83976 4.93729 7.89822 4.91149 7.95116C4.88569 8.00409 4.84731 8.0499 4.7997 8.08458L3.84337 8.78321C4.41224 8.81865 4.95228 8.79342 5.40042 8.70451C8.23458 8.13864 10.119 6.00611 10.119 2.48833C10.119 2.20119 9.5111 1.2022 8.35293 1.2022ZM5.40943 2.89021C5.41991 2.31115 5.60099 1.74805 5.92998 1.27142C6.25897 0.79478 6.72127 0.425789 7.25897 0.210642C7.79668 -0.00450497 8.38591 -0.0562473 8.95288 0.0618937C9.51986 0.180035 10.0394 0.462809 10.4464 0.874811C10.8735 0.871808 11.237 0.979936 12.0497 0.487351C11.8485 1.47252 11.7494 1.90023 11.3204 2.48833C11.3204 7.07898 8.4989 9.31123 5.6359 9.88251C3.67276 10.2742 0.818172 9.63081 0 8.7766C0.416895 8.74416 2.11091 8.56214 3.09007 7.84549C2.26169 7.29944 -1.03563 5.35914 1.13114 0.142541C2.14815 1.33015 3.17958 2.13871 4.22482 2.56762C4.92045 2.85296 5.09105 2.84695 5.41003 2.89081L5.40943 2.89021Z" fill="#888888"/>
</svg>
